<?xml version="1.0" encoding="utf-8"?>
<!-- Generator: Adobe Illustrator 25.0.1, SVG Export Plug-In . SVG Version: 6.00 Build 0)  -->
<svg version="1.0" id="katman_1" xmlns="http://www.w3.org/2000/svg" xmlns:xlink="http://www.w3.org/1999/xlink" x="0px" y="0px"
	 viewBox="0 0 159.6 107.5" style="enable-background:new 0 0 159.6 107.5;" xml:space="preserve">
<style type="text/css">
	.st0{fill:none;}
	.st1{fill:#23AF91;}
	.st2{fill-rule:evenodd;clip-rule:evenodd;fill:#23AF91;}
</style>
<desc>Created with Sketch.</desc>
<g id="页面-1">
	<g id="导航栏下拉最小宽度备份-4" transform="translate(-46.000000, -26.000000)">
		<g id="编组-27备份-2">
			<g id="kucoin-logo" transform="translate(32.000000, 12.000000)">
				<rect id="矩形" x="18.8" y="39.7" class="st0" width="150" height="56"/>
				<g id="KUCOIN-logo-3.0" transform="translate(14.000000, 14.000000)">
					<path id="形状" class="st1" d="M114.1,53.7c0-0.7,0-1.4,0-2c0-0.6-0.1-1.2-0.2-1.7c-0.1-0.5-0.3-1-0.5-1.5
						c-0.2-0.5-0.6-0.9-1-1.3c-0.6-0.6-1.2-1-2-1.4c-0.8-0.3-1.6-0.5-2.5-0.5c-0.9,0-1.7,0.1-2.5,0.5c-0.7,0.3-1.4,0.8-2,1.3
						c-0.4,0.4-0.7,0.8-1,1.3c-0.2,0.5-0.4,1-0.5,1.5c-0.1,0.6-0.2,1.2-0.2,1.7c0,0.6,0,1.3,0,2c0,0.7,0,1.4,0,2
						c0,0.6,0.1,1.2,0.2,1.7c0.1,0.5,0.3,1,0.5,1.5c0.2,0.5,0.6,0.9,1,1.3c0.6,0.6,1.2,1,2,1.3c0.8,0.3,1.7,0.5,2.5,0.5
						c0.9,0,1.7-0.1,2.5-0.5c0.7-0.3,1.4-0.8,2-1.3c0.4-0.4,0.7-0.8,1-1.3c0.2-0.5,0.4-1,0.5-1.5c0.1-0.6,0.2-1.2,0.2-1.7
						C114.1,55.1,114.2,54.4,114.1,53.7L114.1,53.7z M110.9,53.7c0,0.8,0,1.5,0,2c0,0.4-0.1,0.9-0.1,1.3c0,0.3-0.1,0.6-0.3,0.8
						c-0.1,0.2-0.2,0.4-0.4,0.6c-0.2,0.3-0.5,0.5-0.9,0.6c-0.4,0.2-0.8,0.2-1.2,0.2c-0.4,0-0.8-0.1-1.2-0.2
						c-0.3-0.1-0.7-0.4-0.9-0.6c-0.2-0.2-0.3-0.4-0.4-0.6c-0.1-0.3-0.2-0.5-0.2-0.8c-0.1-0.4-0.1-0.9-0.1-1.3c0-0.5,0-1.2,0-2
						c0-0.8,0-1.5,0-2c0-0.4,0.1-0.9,0.1-1.3c0-0.3,0.1-0.6,0.2-0.8c0.1-0.2,0.2-0.4,0.4-0.6c0.2-0.3,0.6-0.5,0.9-0.6
						c0.4-0.2,0.8-0.2,1.2-0.2c0.4,0,0.8,0.1,1.2,0.2c0.3,0.1,0.6,0.4,0.9,0.6c0.2,0.2,0.3,0.4,0.4,0.6c0.1,0.3,0.2,0.5,0.3,0.8
						c0.1,0.4,0.1,0.9,0.1,1.3C110.9,52.3,110.9,52.9,110.9,53.7z"/>
					<path id="路径" class="st1" d="M139.9,45.7c0-0.2-0.1-0.3-0.3-0.3H137c-0.2,0-0.3,0.1-0.3,0.3v9.9l-6.5-10.1
						c0-0.1-0.1-0.1-0.2-0.1h-2.5c-0.2,0-0.3,0.1-0.3,0.3v16c0,0.2,0.1,0.3,0.3,0.3h2.7c0.2,0,0.3-0.1,0.3-0.3v-9.9l6.5,10.1
						c0,0.1,0.1,0.1,0.2,0.1h2.5c0.2,0,0.3-0.1,0.3-0.3L139.9,45.7z"/>
					<path id="路径_1_" class="st1" d="M122,45.7c0-0.2-0.1-0.3-0.3-0.3h-2.7c-0.2,0-0.3,0.1-0.3,0.3v16c0,0.2,0.1,0.3,0.3,0.3
						h2.7c0.2,0,0.3-0.1,0.3-0.3V45.7z"/>
					<path id="路径_2_" class="st1" d="M90.1,53.7c0-0.8,0-1.5,0-2c0-0.4,0.1-0.9,0.1-1.3c0.2-1.4,1.3-2.3,2.7-2.3
						c0.9,0,1.7,0.3,2.3,1.1c0.2,0.4,0.4,0.8,0.5,1.2c0,0,0,0.1,0.1,0.1H99c0,0,0.1,0,0.1-0.1c-0.3-1.9-1.4-3.7-3.2-4.6
						c-0.9-0.4-1.9-0.6-2.9-0.6c-1.8,0-3.3,0.6-4.5,1.8c-0.7,0.7-1.2,1.5-1.4,2.5c-0.2,0.9-0.3,2.3-0.3,4.1c0,1.8,0.1,3.2,0.3,4.1
						c0.2,0.9,0.7,1.8,1.3,2.5c1.2,1.2,2.7,1.8,4.5,1.8c1,0,2-0.2,2.9-0.6c1.8-0.9,2.9-2.6,3.2-4.6c0,0,0-0.1-0.1-0.1h-3.1
						c0,0-0.1,0-0.1,0.1c-0.1,0.4-0.3,0.8-0.5,1.2c-0.5,0.8-1.4,1.1-2.3,1.1c-1.4,0-2.5-0.8-2.7-2.3c-0.1-0.4-0.1-0.9-0.1-1.3
						C90.1,55.2,90.1,54.5,90.1,53.7z"/>
					<path id="路径_3_" class="st1" d="M56.9,45.7c0-0.2-0.1-0.3-0.3-0.3H54c-0.2,0-0.3,0.1-0.3,0.3v16c0,0.2,0.1,0.3,0.3,0.3h2.7
						c0.2,0,0.3-0.1,0.3-0.3V57l2.1-2.6l4.4,7.5c0,0.1,0.1,0.1,0.2,0.1h3.2c0.1,0,0.2-0.1,0.1-0.2L61.2,52l5.3-6.3
						c0.1-0.1,0.1-0.3-0.1-0.3h-3.5c0,0-0.1,0-0.1,0.1l-5.8,7V45.7z"/>
					<path id="路径_4_" class="st1" d="M76.4,59.3c-1.5,0-2.9-1.4-2.9-3V45.7c0-0.2-0.1-0.3-0.3-0.3h-2.7c-0.2,0-0.3,0.1-0.3,0.3
						v10.5c0,3.7,2.7,6,6.1,6s6.1-2.3,6.1-6V45.7c0-0.2-0.1-0.3-0.3-0.3h-2.7c-0.2,0-0.3,0.1-0.3,0.3v10.5
						C79.2,57.9,77.9,59.3,76.4,59.3z"/>
					<path id="形状_1_" class="st2" d="M26.9,53.7l8.3,8.3l5.2-5.2c0.9-0.8,2.4-0.8,3.3,0.1c0.9,0.9,0.9,2.3,0.1,3.3L36.8,67
						c-0.9,0.9-2.4,0.9-3.3,0l-10-10V63c0,1.3-1.1,2.4-2.4,2.4s-2.4-1.1-2.4-2.4V44.5c0-1.3,1.1-2.4,2.4-2.4s2.4,1.1,2.4,2.4v5.9
						l10-10c0.9-0.9,2.4-0.9,3.3,0l6.9,6.9c0.8,0.9,0.8,2.4-0.1,3.3c-0.9,0.9-2.3,0.9-3.3,0.1l-5.2-5.2L26.9,53.7z M35.2,51.4
						L35.2,51.4c-1,0-1.8,0.6-2.2,1.5c-0.4,0.9-0.2,1.9,0.5,2.6c0.7,0.7,1.7,0.9,2.6,0.5c0.9-0.4,1.5-1.2,1.5-2.2
						c0-0.6-0.2-1.2-0.7-1.7S35.8,51.4,35.2,51.4L35.2,51.4z"/>
				</g>
			</g>
		</g>
	</g>
</g>
</svg>
